<svg fill="none" viewBox="0 0 122 122" xmlns="http://www.w3.org/2000/svg"><rect fill="#ffd635" height="104" rx="18" width="104" x="16" y="9"/><rect height="104" rx="18" stroke="#000" stroke-width="4" width="104" x="16" y="9"/><path d="m110.944 55.1744c1.136-5.9402-2.302-11.5886-7.677-12.616-5.3753-1.0273-10.6532 2.9554-11.7885 8.8957-1.1354 5.9403 2.3019 11.5886 7.6772 12.616 5.3753 1.0273 10.6533-2.9554 11.7883-8.8957z" fill="#51e9f4"/><path d="m94.2957 61.0651c.2548-.064.7962.3519 1.6666.7997 1.0451.5554 2.1815.9166 3.3544 1.0663 1.3273.1641 2.6733-.0081 3.9173-.5012 1.005-.3924 1.919-.9875 2.685-1.7486.997-1.0715 1.772-2.331 2.281-3.7057.508-1.3746.74-2.8369.681-4.3021-.02-1.3765-.366-2.7284-1.008-3.9445s-1.563-2.2616-2.686-3.0503c-.893-.5765-1.905-.9397-2.96-1.0617-1.054-.122-2.123.0004-3.1226.358-2.032.7546-3.7219 2.2248-4.7556 4.1372-1.0351 1.8497-1.5178 3.9597-1.3906 6.0777.065.9868.2541 1.9612.5626 2.9003.317.8769.7338 1.7142 1.242 2.4951-1.0818-.2941-2.0716-.8591-2.8768-1.6421-.971-.9547-1.7212-2.1123-2.1973-3.3907-.884-2.156-.9182-4.5692-.0956-6.7496 1.1661-2.4665 3.0071-4.5486 5.3077-6.0031 2.0829-1.3272 4.5351-1.9477 6.9952-1.77 2.251.203 4.378 1.1219 6.072 2.623 1.559 1.3849 2.72 3.1629 3.365 5.1501.608 1.8505.804 3.8125.573 5.7473-.229 1.8314-.84 3.5936-1.794 5.1714-.902 1.5085-2.142 2.786-3.619 3.732-1.396.8886-2.991 1.4127-4.639 1.5248-.857.0643-1.718-.015-2.5479-.2346-.8795-.241-1.7146-.6226-2.4733-1.1303-1.0133-.6625-1.8775-1.5306-2.5371-2.5484z" fill="#000"/><path d="m33.5589 43.5119c.842-5.7433-.3064-10.6676-2.565-10.9987-2.2587-.3311-4.7722 4.0563-5.6141 9.7996-.842 5.7434.3065 10.6677 2.5651 10.9988s4.7721-4.0564 5.614-9.7997z" fill="#51e9f4"/><path d="m33.6522 42.9982c-.3228-.2404-.178-2.0279-.345-4.0559-.0684-1.0138-.2436-2.0188-.5232-3.0002-.175-.7605-.5287-1.4748-1.0352-2.0906-.1244-.1344-.2757-.2445-.4452-.3241-.136-.0586-.2845-.0872-.4342-.0836-.0996.0124-.1954.0438-.2816.0924-.0861.0485-.1608.1131-.2193.1898-.2719.2589-.511.5466-.7124.8572-.5067.8054-.9173 1.6608-1.2244 2.5507-.656 1.8901-1.0598 3.8494-1.2022 5.8329-.1646 1.8538-.0711 3.7198.2783 5.5508.0891.3795.2043.7531.3451 1.1185.0564.147.1233.2902.2003.4286.0236.0605.0574.117.1002.1673s.1225.1359.1893.1463c.6035-.3708 1.1189-.8548 1.5138-1.4216.4851-.646.9203-1.3237 1.3024-2.028.7145-1.3319 1.3499-2.6999 1.9034-4.0978.7884 1.6362 1.0885 3.4428.8682 5.2268-.0799 1.6606-.7816 3.2413-1.9813 4.4636-.3724.3084-.7707.5881-1.1911.8362-.282.153-.576.2858-.8793.3973-.29.1071-.5928.1808-.9017.2195-.7242.0822-1.4584-.0338-2.114-.3343-.6557-.3004-1.2049-.7724-1.5815-1.3592-.1246-.1755-.2326-.3608-.3228-.554-.1709-.3384-.3159-.6877-.4341-1.0453-.1885-.6548-.3225-1.3224-.4008-1.9966-.2296-2.381-.1399-4.7797.2672-7.1397.3129-2.1319.8997-4.2204 1.7476-6.2198.4143-.98.9766-1.8988 1.6697-2.7283.1834-.2197.3883-.4227.6122-.6063.252-.2217.5281-.4179.8237-.5854.6364-.3233 1.362-.4581 2.0815-.3868.8371.1645 1.5814.6106 2.0927 1.2544.4012.4918.7203 1.0382.9461 1.6203.3759.988.5862 2.0247.6234 3.0733.057 1.2023-.0895 2.4055-.4341 3.5646-.2289.8439-.5305 1.669-.9017 2.467z" fill="#000"/><path d="m18 75.266c.1546-1.0997 6.1409-2.1334 8.1731-3.299 3.6227-2.0234 7.5767-3.8819 10.36-6.3892 1.2039-1.0447 2.3415-2.2764 3.7221-3.563 1.4203-1.3974 3.039-2.5793 4.8045-3.508 3.0589-1.6083 6.6331-1.9444 9.9403-.9347-1.1928 1.3636-2.5182 2.6832-3.5454 3.7719-1.0271 1.0887-1.8445 1.8805-2.4961 1.9575-2.5955.2639-4.9039 1.9904-7.0466 3.7169-2.0269 1.69-4.1835 3.2196-6.4501 4.5747-3.6405 2.295-7.7288 3.7943-11.9946 4.3987-1.85.0574-3.6969-.1878-5.4672-.7258z" fill="#fff"/><path d="m69.2734 98.1765c6.6787-3.9207 13.0876-10.1147 19.0326-15.4412.4716-.3272.8675-.7552 1.16-1.254.2926-.4988.4748-1.0566.534-1.6344-.0826-.6212-.3259-1.209-.7051-1.703-.3792-.4941-.8806-.8766-1.4528-1.1085-1.9205-1.0982-3.9705-1.6912-5.9019-2.7126-3.1073-1.6364-4.9739-4.7115-7.2397-7.5559-2.7342-3.561-6.1242-6.5453-9.9803-8.7859-7.7792-4.3161-16.5079-3.7889-24.19.5711-2.87 1.6254-5.4811 3.8438-8.2972 5.612-7.1966 4.5687-24.89133 3.8109-29.7466 11.9049-1.737113 2.8554 1.5321 6.227 4.24027 7.5888l16.18423 8.138c7.4016 3.712 14.8787 7.446 22.7658 9.2032 7.8872 1.757 16.3893 1.428 23.5967-2.8225z" fill="#f60"/><g fill="#000"><path d="m69.3645 98.4366c-1.5284 1.2862-3.2974 2.2504-5.202 2.8344-3.9022 1.353-8.0298 1.921-12.1489 1.672-4.7306-.313-9.3953-1.285-13.8614-2.888-4.3081-1.4881-8.0346-3.1603-10.7164-4.3439-4.7174-2.0522-9.5102-4.2783-14.4323-6.5151l-3.69417-1.7157-1.85249-.8687-.92624-.4343-.4739-.228-.53851-.2715c-1.47375-.7811-2.77745-1.8518-3.83423-3.149-.60842-.7315-1.075975-1.5711-1.3786-2.4757-.3752953-1.0857-.405412-2.2624-.08616-3.3662.065276-.2885.170412-.5663.312335-.8253.102243-.2403.228554-.4696.376963-.6841.225692-.3793.477622-.7422.753922-1.0858.52585-.664 1.12171-1.2684 1.7771-1.8026 1.22268-1.0122 2.57367-1.8557 4.01732-2.5083 2.66786-1.1818 5.44116-2.1052 8.28236-2.758l7.97-1.8569c2.3954-.4999 4.7185-1.3025 6.9146-2.3889.3661-.2063.84-.5103 1.2924-.8144l1.3678-.9555 2.8218-2.0306c2.0148-1.4635 4.1816-2.7014 6.4622-3.6919 4.5649-2.0327 9.605-2.7288 14.5439-2.0087 4.9389.7202 9.5769 2.8274 13.3835 6.0807 1.793 1.4646 3.4479 3.093 4.9436 4.8646 1.4971 1.7265 2.7572 3.5833 3.9419 5.1144 1.0185 1.4373 2.3247 2.6433 3.8342 3.5399 1.5617.8578 3.5004 1.5311 5.4498 2.6169.5689.3025 1.1034.6666 1.594 1.0859l.3878.3801c.1483.1591.2885.3258.42.4994.2479.3373.4574.7015.6247 1.0859.31.7861.3885 1.6458.2261 2.4758-.1812.8004-.5506 1.5452-1.077 2.1717-.3819.4606-.8076.8824-1.2709 1.2596l-1.077.9121-2.1541 1.7917c-5.6651 4.7452-11.1365 9.0778-16.6616 11.8576 4.3081-3.7028 9.5532-9.4905 14.7122-15.0283l1.9387-2.0306c.3231-.3366.6677-.6732.8724-.923.1554-.1639.2795-.3553.3661-.5646.0057-.0545-.0033-.1094-.0261-.1591-.0227-.0497-.0584-.0923-.1031-.1232s-.0646-.0001-.14-.0869c-.1866-.1307-.3849-.2434-.5924-.3366-2.4018-1.151-5.2559-1.9111-7.2053-3.4205-1.666-1.3276-3.1191-2.9061-4.3081-4.68-1.0771-1.5854-2.0679-3.0296-3.1557-4.3435-2.0889-2.6661-4.5998-4.9665-7.4315-6.8083-2.7527-1.7527-5.8578-2.8655-9.0902-3.2576-3.1723-.3529-6.3827-.0311-9.424.9447-3.0009.9899-5.8259 2.4561-8.3685 4.3435-1.3032.9012-2.6064 1.8459-3.9635 2.7254-.6909.4588-1.4104.8723-2.154 1.2379-.7433.3444-1.5057.6453-2.2833.9013-2.9545.9241-5.9567 1.6854-8.9932 2.2803-2.8654.5711-5.6984 1.2961-8.487 2.1717-2.59032.7393-4.97547 2.0736-6.96843 3.8982-.42503.445-.80395.9326-1.13088 1.4551-.22533.3823-.31992.8287-.26926 1.2705.2262 1.0743.8025 2.0414 1.63708 2.7472.43558.4056.90796.7692 1.41091 1.0858.52162.327 1.06502.6173 1.62632.8687l3.59726 1.7374 7.0007 3.377c9.1979 4.4303 17.5556 8.8932 25.9026 11.1952 4.6894 1.3571 9.5716 1.9121 14.443 1.6401 3.5587-.262 7.0404-1.1744 10.2748-2.6934z"/><path d="m84 80.7388c0 .4839-2.1454 2.843-5.2883 5.0408-.7616.5747-1.5983 1.099-2.4242 1.6131-.826.5142-1.6948 1.0082-2.5208 1.4518s-1.6412.8267-2.3706 1.1896c-.7294.363-1.4052.6554-1.9737.9175-2.0572.9433-4.2145 1.68-6.4361 2.1978-2.3493.5229-4.7516.8068-7.1654.8469-4.864.0677-9.6919-.7932-14.1915-2.5305-3.7544-1.3913-7.1118-3.1052-10.3728-4.4058-3.1411-1.2731-6.4067-2.2556-9.7506-2.9337-5.7558-1.1191-11.66208-1.3879-17.506-.7965 2.4265-1.7927 5.24839-3.0534 8.2596-3.6899 2.6016-.6727 5.3258-.817 7.9914-.4235 3.0821.7086 6.1016 1.6388 9.0319 2.7826 2.6727 1.0645 5.2862 2.2557 7.8305 3.5689 2.3139 1.193 4.6952 2.2666 7.1333 3.2161 1.1585.4537 2.3492.7562 3.5077 1.0889 1.1519.2761 2.3194.4915 3.4969.6452 4.3388.5566 8.7524.2892 12.9793-.7864 3.6766-.9447 7.22-2.2985 10.5551-4.0327 1.4696-.7763 3.572-1.7542 5.3634-2.7725l1.2979-.7158 1.0727-.6654z"/></g></svg>