<svg fill="none" height="40" viewBox="0 0 40 40" width="40" xmlns="http://www.w3.org/2000/svg"><path d="m25.3365.799988h-16.00001c-2.35638 0-4.26667 1.910222-4.26667 4.266662v29.86665c0 2.3565 1.91029 4.2667 4.26667 4.2667h21.33331c2.3564 0 4.2667-1.9102 4.2667-4.2667v-24.5333z" fill="#ffd635"/><g clip-rule="evenodd" fill-rule="evenodd"><path d="m25.0305.0609198c.2989-.1238249.643-.05538022.8718.1734182l9.6 9.600002c.2288.22876.2973.57286.1734.87186-.1238.2989-.4155.4938-.7391.4938h-5.3333c-2.7983 0-5.0667-2.2684-5.0667-5.06664v-5.333337c0-.323569.1949-.615278.4939-.7391032z" fill="#ffd635"/><path d="m25.0305.0609198c.2989-.1238249.643-.05538022.8718.1734182l9.6 9.600002c.2288.22876.2973.57286.1734.87186-.1238.2989-.4155.4938-.7391.4938h-5.3333c-2.7983 0-5.0667-2.2684-5.0667-5.06664v-5.333337c0-.323569.1949-.615278.4939-.7391032z" fill="#000" fill-opacity=".25"/><path d="m25.9473.279288c.1218.142116.1927.325634.1927.520735v1.934767l-.0034-.0034v3.40197c0 1.91458 1.5521 3.46666 3.4667 3.46666l5.3967-.00002v.00221c.0832.00624.1663.0256.2461.05867.0791.03275.1509.07723.2137.13094l.0425.04252c.0502.05023.0928.10601.1272.16566.0696.1206.1072.2584.1072.4v24.5333c0 2.7983-2.2685 5.0667-5.0667 5.0667h-21.33331c-2.7982 0-5.06667-2.2684-5.06667-5.0667v-29.86663c0-2.79828 2.26847-5.06667 5.06667-5.06667h16.00001c.2122 0 .4156.0842855.5657.234315zm-1.4107 1.320712h-15.19991c-1.91456 0-3.46667 1.55206-3.46667 3.46667v29.86663c0 1.9146 1.55211 3.4667 3.46667 3.4667h21.33331c1.9146 0 3.4667-1.5521 3.4667-3.4667v-23.7333h-4.5334c-2.7983 0-5.0667-2.2684-5.0667-5.06664z" fill="#000"/></g><path d="m32.1764 18.0282c.4309-2.2548-.8738-4.3988-2.9141-4.7888-2.0404-.3899-4.0438 1.1218-4.4747 3.3766s.8738 4.3988 2.9141 4.7887c2.0404.39 4.0438-1.1218 4.4747-3.3765z" fill="#51e9f4"/><path d="m25.8568 20.2641c.0967-.0243.3022.1336.6326.3036.3967.2108.828.3479 1.2733.4047.5036.0623 1.0148-.0031 1.4868-.1902.3814-.149.7283-.3749 1.0194-.6638.3783-.4067.6725-.8848.8654-1.4065.193-.5218.281-1.0768.2587-1.633-.0076-.5225-.1387-1.0357-.3825-1.4973s-.5933-.8584-1.0196-1.1577c-.3389-.2189-.7233-.3568-1.1235-.4031-.4003-.0463-.8058.0002-1.1853.1359-.7713.2864-1.4128.8445-1.8052 1.5704-.3928.7021-.5761 1.503-.5278 2.307.0247.3745.0965.7444.2136 1.1008.1203.3329.2785.6507.4714.9471-.4106-.1116-.7863-.3261-1.092-.6233-.3686-.3624-.6533-.8018-.834-1.287-.3356-.8184-.3485-1.7344-.0363-2.562.4426-.9362 1.1414-1.7265 2.0147-2.2786.7906-.5038 1.7214-.7393 2.6553-.6719.8541.0771 1.6615.4259 2.3047.9957.5916.5256 1.0326 1.2005 1.2773 1.9548.2307.7024.3049 1.4471.2176 2.1815-.0869.6952-.319 1.3641-.681 1.963-.3427.5726-.813 1.0575-1.3739 1.4165-.5298.3373-1.1351.5363-1.7608.5788-.3251.0244-.6519-.0057-.9671-.089-.3338-.0915-.6508-.2364-.9388-.4291-.3846-.2514-.7126-.5809-.963-.9673z" fill="#000"/><path d="m12.6386 15.1491c.3196-2.18-.1163-4.0491-.9737-4.1748-.8573-.1257-1.81133 1.5397-2.13092 3.7197-.31958 2.18.11633 4.0492.97362 4.1749.8573.1256 1.8114-1.5397 2.131-3.7198z" fill="#51e9f4"/><path d="m12.674 14.9542c-.1225-.0912-.0676-.7697-.131-1.5395-.0259-.3848-.0924-.7663-.1986-1.1388-.0664-.2887-.2006-.5598-.3929-.7935-.0472-.051-.1046-.0928-.169-.123-.0516-.0223-.108-.0331-.1648-.0318-.0378.0047-.0742.0167-.1069.0351s-.061.0429-.0832.0721c-.1032.0982-.194.2074-.2704.3253-.1924.3057-.3482.6304-.4648.9682-.249.7174-.4022 1.4611-.4563 2.214-.0625.7037-.027 1.412.1056 2.107.0338.144.0776.2858.131.4245.0214.0558.0468.1102.0761.1627.0089.023.0217.0444.038.0635s.0465.0516.0718.0555c.2291-.1407.4248-.3244.5746-.5396.1842-.2452.3494-.5024.4944-.7697.2712-.5056.5124-1.0249.7225-1.5554.2992.621.4131 1.3067.3295 1.9839-.0303.6303-.2967 1.2303-.752 1.6943-.1414.117-.2926.2232-.4521.3174-.1071.0581-.2187.1085-.3338.1508-.1101.0406-.225.0686-.3422.0833-.275.0312-.5536-.0128-.8025-.1269-.24886-.114-.45732-.2932-.60029-.5159-.04728-.0666-.08828-.137-.12253-.2103-.06484-.1284-.11991-.261-.16478-.3968-.07154-.2485-.12239-.5019-.15211-.7578-.08716-.9038-.05309-1.8143.10141-2.7101.11878-.8092.34152-1.6019.66334-2.3609.15725-.3719.37066-.7207.63376-1.0356.0696-.0833.1474-.1604.2324-.2301.0957-.0841.2005-.1586.3127-.2222.2415-.1227.5169-.1739.7901-.1468.3177.0624.6002.2318.7943.4761.1523.1867.2734.3941.3591.615.1427.3751.2225.7686.2366 1.1666.0217.4564-.0339.9131-.1648 1.353-.0868.3204-.2013.6335-.3422.9364z" fill="#000"/><path d="m23.0313 33.5894c2.2204-1.3036 4.3512-3.3629 6.3277-5.1338.1568-.1088.2884-.251.3857-.4169.0973-.1658.1578-.3513.1775-.5434-.0274-.2065-.1083-.4019-.2344-.5662-.1261-.1642-.2928-.2914-.483-.3685-.6385-.3651-1.3201-.5623-1.9622-.9019-1.0331-.544-1.6537-1.5664-2.407-2.5121-.909-1.1839-2.0361-2.1761-3.3181-2.921-2.5863-1.4349-5.4884-1.2597-8.0424.1899-.9542.5404-1.8223 1.2779-2.7585 1.8658-2.39268 1.5189-8.27563 1.267-9.88985 3.958-.577533.9493.50938 2.0703 1.40976 2.523l5.38074 2.7057c2.46075 1.2341 4.94665 2.4755 7.56895 3.0597 2.6222.5842 5.4489.4747 7.8451-.9383z" fill="#ff4500"/><path d="m23.0615 33.6758c-.5082.4276-1.0963.7481-1.7295.9423-1.2974.4499-2.6697.6387-4.0391.5559-1.5728-.1041-3.1237-.4273-4.6085-.9603-1.4323-.4946-2.6713-1.0505-3.56289-1.444-1.56838-.6823-3.16183-1.4224-4.79824-2.1661l-1.22821-.5704-.6159-.2888-.30794-.1444-.15756-.0758-.17904-.0903c-.48997-.2597-.923411-.6156-1.274757-1.0469-.202281-.2432-.357727-.5224-.458341-.8231-.1247733-.361-.1347861-.7522-.0286451-1.1192.0217022-.0959.0566571-.1882.1038421-.2743.033992-.08.075986-.1562.125328-.2275.075035-.1261.158794-.2467.250655-.361.174828-.2207.372933-.4217.590828-.5993.4065-.3365.85567-.617 1.33563-.8339.88699-.3929 1.80901-.7 2.75362-.917l2.64978-.6173c.79637-.1662 1.56876-.4331 2.29884-.7942.1218-.0686.2793-.1697.4297-.2708l.4548-.3177.9381-.6751c.6699-.4866 1.3903-.8982 2.1485-1.2274 1.5177-.6758 3.1934-.9073 4.8354-.6679 1.642.2395 3.184.94 4.4496 2.0217.5961.4869 1.1463 1.0283 1.6436 1.6173.4977.574.9166 1.1913 1.3105 1.7004.3386.4778.7729.8788 1.2748 1.1769.5192.2852 1.1637.509 1.8119.87.1891.1006.3668.2216.5299.361l.1289.1264c.0494.0529.096.1083.1397.166.0824.1122.1521.2333.2077.3611.103.2613.1291.5471.0752.8231-.0603.2661-.1831.5137-.3581.722-.127.1531-.2685.2934-.4226.4188l-.358.3032-.7162.5957c-1.8835 1.5776-3.7025 3.0181-5.5395 3.9423 1.4324-1.2311 3.1762-3.1553 4.8914-4.9965l.6445-.6751c.1075-.1119.222-.2238.2901-.3068.0516-.0545.0929-.1182.1217-.1877.0019-.0181-.0011-.0364-.0087-.0529-.0075-.0166-.0194-.0307-.0343-.041s-.0214 0-.0465-.0289c-.062-.0434-.128-.0809-.1969-.1119-.7986-.3827-1.7475-.6354-2.3956-1.1372-.5539-.4414-1.037-.9662-1.4323-1.556-.3581-.527-.6875-1.0072-1.0492-1.444-.6944-.8864-1.5292-1.6512-2.4707-2.2636-.9152-.5827-1.9475-.9527-3.0222-1.083-1.0547-.1173-2.122-.0103-3.1332.3141-.9977.3291-1.9369.8165-2.7822 1.444-.4333.2997-.8666.6137-1.3178.9062-.2297.1525-.4689.29-.7161.4115-.2471.1145-.5006.2146-.75915.2997-.98226.3072-1.98039.5603-2.98995.7581-.95263.1899-1.89452.4309-2.82166.722-.86118.2458-1.65417.6894-2.31677 1.2961-.1413.1479-.26728.31-.37598.4837-.07491.1271-.10636.2755-.08952.4224.07521.3572.26681.6787.54428.9134.14482.1348.30187.2557.46908.361.17342.1087.35409.2052.5407.2888l1.19598.5776 2.32751 1.1228c3.05799 1.4729 5.83668 2.9567 8.61178 3.722 1.5591.4513 3.1822.6356 4.8018.5451 1.1832-.0869 2.3408-.3903 3.4161-.8953z" fill="#000"/><path d="m5.98462 25.9724c.05141-.3656 2.04165-.7092 2.71731-1.0968 1.20442-.6727 2.51897-1.2906 3.44437-2.1242.4002-.3473.7785-.7568 1.2375-1.1846.4722-.4646 1.0104-.8575 1.5973-1.1663 1.017-.5347 2.2053-.6464 3.3048-.3107-.3965.4533-.8372.8921-1.1787 1.254-.3415.362-.6132.6252-.8299.6508-.8629.0877-1.6303.6618-2.3427 1.2358-.6739.5618-1.3909 1.0704-2.1445 1.5209-1.2103.763-2.56957 1.2615-3.98782 1.4624-.61507.0191-1.22911-.0624-1.81766-.2413z" fill="#fff" fill-opacity=".5"/><path d="m27.9273 27.7919c0 .1609-.7133.9452-1.7582 1.6759-.2532.1911-.5314.3654-.806.5363-.2746.171-.5635.3352-.8381.4827s-.5456.2748-.7881.3955-.4672.2179-.6562.305c-.6839.3136-1.4012.5586-2.1398.7307-.7811.1739-1.5797.2683-2.3823.2816-1.6171.0225-3.2222-.2637-4.7182-.8413-1.2482-.4626-2.3644-1.0324-3.4486-1.4648-1.04434-.4233-2.13005-.7499-3.24177-.9754-1.91363-.372-3.87728-.4614-5.8202-.2648.80674-.596 1.74493-1.0151 2.74605-1.2268.86496-.2236 1.77067-.2716 2.6569-.1407 1.02469.2355 2.02859.5448 3.00282.9251.8886.3539 1.7575.7499 2.6034 1.1865.7693.3966 1.561.7536 2.3716 1.0693.3851.1508.781.2514 1.1662.362.383.0918.7711.1634 1.1626.2145 1.4425.1851 2.9099.0962 4.3152-.2614 1.2223-.3141 2.4004-.7642 3.5092-1.3408.4886-.2581 1.1876-.5832 1.7832-.9218l.4315-.2379.3566-.2213z" fill="#000"/></svg>